<svg data-name="Layer 1" xmlns="http://www.w3.org/2000/svg" viewBox="0 0 96 96"><path d="M54.43 94h-39.3a6.67 6.67 0 01-6.66-6.67V8.67A6.67 6.67 0 0115.13 2h39.3a6.67 6.67 0 016.66 6.67v8.66a1 1 0 01-2 0V8.67A4.67 4.67 0 0054.43 4h-39.3a4.67 4.67 0 00-4.66 4.67v78.66A4.67 4.67 0 0015.13 92h39.3a4.67 4.67 0 004.66-4.67V58.47a1 1 0 012 0v28.86A6.67 6.67 0 0154.43 94z"/><path d="M43.22 8.29H26.34a3.66 3.66 0 01-3.4-2.36L22 3.35a1 1 0 01.11-.92A1 1 0 0122.9 2h23.76a1 1 0 01.82.43 1 1 0 01.12.92l-1 2.58a3.68 3.68 0 01-3.38 2.36zM24.35 4l.46 1.23a1.66 1.66 0 001.53 1.06h16.88a1.65 1.65 0 001.53-1.06L45.22 4zm21.23 86.28H24a1 1 0 010-2h21.6a1 1 0 110 2zm20.78-28.39a1 1 0 01-.46-.12c-12-6.21-32.91-4.57-39-3.92a4 4 0 01-4.12-2.35 36.19 36.19 0 01-2.95-10.68 4 4 0 012.34-4.14c5.59-2.58 24.41-11.9 31.51-23.37a1 1 0 111.7 1.05C48 30.3 28.69 39.85 23 42.5a2 2 0 00-1.19 2.08 34.47 34.47 0 002.78 10.1 2 2 0 002.09 1.18c6.27-.66 27.7-2.33 40.17 4.14a1 1 0 01-.46 1.89z"/><path d="M22.72 57.38a3.47 3.47 0 01-3.17-2 29.57 29.57 0 01-2.41-8.75 3.45 3.45 0 012-3.56l1.37-.64.87 1.8-1.38.62a1.49 1.49 0 00-.86 1.51 28.2 28.2 0 002.25 8.16 1.47 1.47 0 001.51.85l1.55-.15a1 1 0 11.18 2l-1.51.15zM68 62.28c-2.29 0-4.88-1.93-7.4-5.57a52.79 52.79 0 01-6.81-15.53c-3.12-11.34-3.36-24.24 2.36-25.82s12.13 9.63 15.26 21a52.47 52.47 0 012.1 16.82c-.34 5.1-1.93 8.29-4.46 9a3.69 3.69 0 01-1.05.1zM57.24 17.22a1.88 1.88 0 00-.53.07c-3.25.9-4.45 10.71-1 23.36a50.69 50.69 0 006.53 14.92c2.32 3.35 4.66 5.09 6.27 4.65s2.72-3.14 3-7.21a50.66 50.66 0 00-2-16.15c-3.31-11.99-8.92-19.64-12.27-19.64z"/><path d="M56.66 47.67a1 1 0 01-.26-2l.93-.26a5 5 0 10-2.68-9.73l-.94.26a1 1 0 01-.53-1.93l.94-.26a7 7 0 013.74 13.59l-.93.25a.84.84 0 01-.27.08zM40 79.61a5 5 0 01-1.22-.15A5 5 0 0135.61 77c-4.9-9.17-4.31-20.17-4.28-20.63a1 1 0 012 .12c0 .1-.58 10.9 4 19.56a3 3 0 004.32 1.09l2.79-1.85c-2.77-2.35-4.15-4.47-4.4-8.52v-.43a4.63 4.63 0 00-.35-2 4.42 4.42 0 00-.7-.88 4.84 4.84 0 01-1.26-1.93c-.51-1.8.76-3.37 1.68-4.51a5.77 5.77 0 00.78-1.26 1 1 0 011.84.76 7.18 7.18 0 01-1 1.74c-.73.91-1.55 1.92-1.32 2.73a3.15 3.15 0 00.79 1.11 6.39 6.39 0 011 1.29 6.25 6.25 0 01.59 2.8v.41c.23 3.83 1.57 5.48 4.7 7.94a1 1 0 01-.07 1.62l-3.92 2.6a5 5 0 01-2.8.85zm24.73-46.06a1 1 0 01-.26-2c.16 0 .38-.35.45-.8A6.48 6.48 0 0065 30a6.92 6.92 0 01.2-1.42c.48-1.66 1.91-2.64 3.17-3.5s2.14-1.47 2.35-2.48a4.21 4.21 0 00.07-.83 5.65 5.65 0 01.21-1.42 4.19 4.19 0 012.61-2.64 10.4 10.4 0 013.17-.54 1 1 0 011.06.94 1 1 0 01-.94 1.06 8.59 8.59 0 00-2.57.4 2.24 2.24 0 00-1.4 1.32 3.76 3.76 0 00-.09.93 6.45 6.45 0 01-.11 1.2c-.38 1.79-1.87 2.81-3.18 3.72-1.08.73-2.09 1.43-2.37 2.4a4.34 4.34 0 00-.13 1c0 .32 0 .65-.11 1A2.82 2.82 0 0165 33.51a.77.77 0 01-.27.04zm3.32 4.75h-.29a1 1 0 01-1-1 1 1 0 011-1 8.21 8.21 0 004.37-1.46c.34-.2.68-.4 1-.61a17.8 17.8 0 013.81-2l.74-.23a4.09 4.09 0 001.92-.89 4 4 0 00.37-.55 6.59 6.59 0 01.51-.75 2.28 2.28 0 012.64-.81 1 1 0 01-.69 1.88.69.69 0 00-.31.23 3.77 3.77 0 00-.34.51 5.65 5.65 0 01-.59.84A5.67 5.67 0 0178.33 34l-.67.2a16 16 0 00-3.37 1.76l-1.05.63a10.38 10.38 0 01-5.19 1.71zm16.76 8.95a18.63 18.63 0 01-4.32-.69c-2-.49-3.92-1-5.62-.32l-.22.08a3 3 0 01-2.09.25 3.09 3.09 0 01-1.11-.72l-.18-.17a2.31 2.31 0 00-2.77 0 1 1 0 11-1.23-1.58 4.27 4.27 0 015.28.1l.26.23a1.56 1.56 0 00.36.29 1.87 1.87 0 00.74-.21l.26-.1c2.27-.84 4.57-.29 6.8.26 1.88.45 3.67.89 5.31.45a1 1 0 01.51 1.88 7.89 7.89 0 01-1.98.25z"/></svg>