<svg data-name="Layer 1" xmlns="http://www.w3.org/2000/svg" viewBox="0 0 96 96"><path d="M41.35 77a37.48 37.48 0 1129.16-13.94A1 1 0 0169 61.8a35.39 35.39 0 10-10.23 8.65 1 1 0 111 1.74A37.55 37.55 0 0141.35 77z"/><path d="M41.35 54.49c-5.46 0-9.9-3.57-9.9-8a1 1 0 012 0c0 3.28 3.54 6 7.9 6s7.9-2.68 7.9-6c0-2.76-2.58-4.66-8.13-6-6.51-1.56-9.67-4.16-9.67-7.94 0-4.39 4.44-8 9.9-8s9.9 3.57 9.9 8a1 1 0 01-2 0c0-3.28-3.54-6-7.9-6s-7.9 2.68-7.9 6c0 2.72 2.66 4.68 8.13 6 4.15 1 9.67 2.9 9.67 7.94 0 4.43-4.44 8-9.9 8z"/><path d="M41.35 59.33a1 1 0 01-1-1V20.65a1 1 0 012 0v37.68a1 1 0 01-1 1zM83.7 94a1 1 0 01-.71-.29l-13.5-13.5-3 8a1 1 0 01-.93.65 1 1 0 01-.94-.64L52.39 56.45a1 1 0 01.23-1.07 1 1 0 011.07-.22L85.4 67.42a1 1 0 010 1.87l-8 3 12.48 12.4A1 1 0 0190 86l-5.47 7.6a1 1 0 01-.73.42zM69.1 77.4a1 1 0 01.71.3l13.77 13.76 4.28-5.95-12.93-12.94a1 1 0 01.36-1.64l6.94-2.6-27.16-10.49L65.57 85l2.6-6.94a1 1 0 01.72-.63zm11.3-17.24a1 1 0 01-.86-.48 1 1 0 01.34-1.37l10.74-6.51a1 1 0 011.38.34 1 1 0 01-.34 1.37L80.91 60a1 1 0 01-.51.16zm.9-6.5a1 1 0 01-.49-.14 1 1 0 01-.37-1.36l5.29-9.23a1 1 0 011.74 1l-5.3 9.23a1 1 0 01-.87.5zM46.23 91.3a1 1 0 01-.82-.44 1 1 0 01.26-1.39l10.38-7.07a1 1 0 011.13 1.65L46.8 91.13a1.08 1.08 0 01-.57.17zm-6.51-7.96a1 1 0 01-.1-2l10.6-1a1 1 0 01.19 2l-10.6 1z"/></svg>