<svg data-name="Layer 1" xmlns="http://www.w3.org/2000/svg" viewBox="0 0 96 96"><path d="M57.88 72c-4.68 0-9.19-.27-11-.89a1 1 0 01.63-1.89c3.15 1.05 17.87 1 22.5 0 .74-.17 2-.56 2.14-1.34s-.86-2.24-2.48-3.37c-3-2.09-10.54-1.61-15-1.33a19.65 19.65 0 01-4.57 0c-1.95-.52-7.33-2.8-15.37-6.3-9.16-4-20.85 2.23-21 2.29a1 1 0 01-1.36-.41 1 1 0 01.41-1.35c.51-.28 12.66-6.74 22.72-2.36 6.69 2.91 13.15 5.68 15.09 6.2a27.61 27.61 0 003.92-.11c5.07-.32 12.73-.8 16.31 1.68 2.4 1.67 3.63 3.69 3.3 5.4-.19 1-1 2.3-3.65 2.91a71.51 71.51 0 01-12.59.87z"/><path d="M52.24 83.94c-1.45 0-6.08-1-13.52-2.64-5.88-1.3-12-2.64-14.15-2.83a22.42 22.42 0 00-7.63.63 1 1 0 11-.58-1.92 24.37 24.37 0 018.38-.7c2.32.2 8.47 1.56 14.42 2.87 5.5 1.21 11.74 2.59 13.08 2.59 1.5 0 10.94-3.37 24.05-8.59a7.65 7.65 0 001.82-1l13.11-10a2 2 0 00-2.1-3.35l-15.84 8a1 1 0 01-.9-1.78l15.83-8a4 4 0 014.22 6.72l-13.11 10A9.76 9.76 0 0177 75.2c-8.17 3.27-22.28 8.74-24.76 8.74z"/><path d="M7.68 83.4a1 1 0 01-1-.82l-4.51-24.2A1 1 0 013 57.21l9.53-1.92a1 1 0 01.77.15 1 1 0 01.42.66l4.18 24.43a1 1 0 01-.81 1.15l-9.23 1.7zM4.32 59l4.16 22.23 7.28-1.34-3.88-22.44zm41.12-27.54a9.78 9.78 0 119.79-9.78 9.79 9.79 0 01-9.79 9.78zm0-17.56a7.78 7.78 0 107.79 7.78 7.79 7.79 0 00-7.79-7.78z"/><path d="M54.6 48.08H27.41a1 1 0 01-1-1A17.63 17.63 0 0144 29.46h2.85a17.5 17.5 0 0113.92 6.83 1 1 0 11-1.58 1.22 15.53 15.53 0 00-12.34-6H44a15.64 15.64 0 00-15.56 14.57H54.6a1 1 0 110 2z"/><path d="M62 53.47a8.79 8.79 0 118.78-8.79A8.79 8.79 0 0162 53.47zm0-15.57a6.79 6.79 0 106.78 6.78A6.79 6.79 0 0062 37.9z"/><path d="M60.14 47.64a1 1 0 01-.74-.33l-1.63-1.82a1 1 0 111.48-1.33l1 1.14 4.64-3.38a1 1 0 011.18 1.61l-5.37 3.92a1 1 0 01-.56.19z"/></svg>