<?xml version="1.0" encoding="utf-8"?><svg viewBox="0 0 96 96" xmlns="http://www.w3.org/2000/svg" xmlns:xlink="http://www.w3.org/1999/xlink"><style>:root>svg{display:none}:root>svg:target{display:block}</style><svg data-name="Layer 1" viewBox="0 0 96 96" id="efficiency" xmlns="http://www.w3.org/2000/svg"><path d="M41.35 77a37.48 37.48 0 1 1 29.16-13.94A1 1 0 0 1 69 61.8a35.39 35.39 0 1 0-10.23 8.65 1 1 0 1 1 1 1.74A37.55 37.55 0 0 1 41.35 77Z"/><path d="M41.35 54.49c-5.46 0-9.9-3.57-9.9-8a1 1 0 0 1 2 0c0 3.28 3.54 6 7.9 6s7.9-2.68 7.9-6c0-2.76-2.58-4.66-8.13-6-6.51-1.56-9.67-4.16-9.67-7.94 0-4.39 4.44-8 9.9-8s9.9 3.57 9.9 8a1 1 0 0 1-2 0c0-3.28-3.54-6-7.9-6s-7.9 2.68-7.9 6c0 2.72 2.66 4.68 8.13 6 4.15 1 9.67 2.9 9.67 7.94 0 4.43-4.44 8-9.9 8Z"/><path d="M41.35 59.33a1 1 0 0 1-1-1V20.65a1 1 0 0 1 2 0v37.68a1 1 0 0 1-1 1ZM83.7 94a1 1 0 0 1-.71-.29l-13.5-13.5-3 8a1 1 0 0 1-.93.65 1 1 0 0 1-.94-.64L52.39 56.45a1 1 0 0 1 .23-1.07 1 1 0 0 1 1.07-.22L85.4 67.42a1 1 0 0 1 0 1.87l-8 3 12.48 12.4A1 1 0 0 1 90 86l-5.47 7.6a1 1 0 0 1-.73.42ZM69.1 77.4a1 1 0 0 1 .71.3l13.77 13.76 4.28-5.95-12.93-12.94a1 1 0 0 1 .36-1.64l6.94-2.6-27.16-10.49L65.57 85l2.6-6.94a1 1 0 0 1 .72-.63ZM80.4 60.16a1 1 0 0 1-.86-.48 1 1 0 0 1 .34-1.37l10.74-6.51a1 1 0 0 1 1.38.34 1 1 0 0 1-.34 1.37L80.91 60a1 1 0 0 1-.51.16ZM81.3 53.66a1 1 0 0 1-.49-.14 1 1 0 0 1-.37-1.36l5.29-9.23a1 1 0 0 1 1.74 1l-5.3 9.23a1 1 0 0 1-.87.5ZM46.23 91.3a1 1 0 0 1-.82-.44 1 1 0 0 1 .26-1.39l10.38-7.07a1 1 0 0 1 1.13 1.65L46.8 91.13a1.08 1.08 0 0 1-.57.17ZM39.72 83.34a1 1 0 0 1-.1-2l10.6-1a1 1 0 0 1 .19 2l-10.6 1Z"/></svg><svg data-name="Layer 1" viewBox="0 0 96 96" id="satisfaction" xmlns="http://www.w3.org/2000/svg"><path d="M57.88 72c-4.68 0-9.19-.27-11-.89a1 1 0 0 1 .63-1.89c3.15 1.05 17.87 1 22.5 0 .74-.17 2-.56 2.14-1.34s-.86-2.24-2.48-3.37c-3-2.09-10.54-1.61-15-1.33a19.65 19.65 0 0 1-4.57 0c-1.95-.52-7.33-2.8-15.37-6.3-9.16-4-20.85 2.23-21 2.29a1 1 0 0 1-1.36-.41 1 1 0 0 1 .41-1.35c.51-.28 12.66-6.74 22.72-2.36 6.69 2.91 13.15 5.68 15.09 6.2a27.61 27.61 0 0 0 3.92-.11c5.07-.32 12.73-.8 16.31 1.68 2.4 1.67 3.63 3.69 3.3 5.4-.19 1-1 2.3-3.65 2.91a71.51 71.51 0 0 1-12.59.87Z"/><path d="M52.24 83.94c-1.45 0-6.08-1-13.52-2.64-5.88-1.3-12-2.64-14.15-2.83a22.42 22.42 0 0 0-7.63.63 1 1 0 1 1-.58-1.92 24.37 24.37 0 0 1 8.38-.7c2.32.2 8.47 1.56 14.42 2.87 5.5 1.21 11.74 2.59 13.08 2.59 1.5 0 10.94-3.37 24.05-8.59a7.65 7.65 0 0 0 1.82-1l13.11-10a2 2 0 0 0-2.1-3.35l-15.84 8a1 1 0 0 1-.9-1.78l15.83-8a4 4 0 0 1 4.22 6.72l-13.11 10A9.76 9.76 0 0 1 77 75.2c-8.17 3.27-22.28 8.74-24.76 8.74Z"/><path d="M7.68 83.4a1 1 0 0 1-1-.82l-4.51-24.2A1 1 0 0 1 3 57.21l9.53-1.92a1 1 0 0 1 .77.15 1 1 0 0 1 .42.66l4.18 24.43a1 1 0 0 1-.81 1.15l-9.23 1.7ZM4.32 59l4.16 22.23 7.28-1.34-3.88-22.44ZM45.44 31.46a9.78 9.78 0 1 1 9.79-9.78 9.79 9.79 0 0 1-9.79 9.78Zm0-17.56a7.78 7.78 0 1 0 7.79 7.78 7.79 7.79 0 0 0-7.79-7.78Z"/><path d="M54.6 48.08H27.41a1 1 0 0 1-1-1A17.63 17.63 0 0 1 44 29.46h2.85a17.5 17.5 0 0 1 13.92 6.83 1 1 0 1 1-1.58 1.22 15.53 15.53 0 0 0-12.34-6H44a15.64 15.64 0 0 0-15.56 14.57H54.6a1 1 0 1 1 0 2Z"/><path d="M62 53.47a8.79 8.79 0 1 1 8.78-8.79A8.79 8.79 0 0 1 62 53.47Zm0-15.57a6.79 6.79 0 1 0 6.78 6.78A6.79 6.79 0 0 0 62 37.9Z"/><path d="M60.14 47.64a1 1 0 0 1-.74-.33l-1.63-1.82a1 1 0 1 1 1.48-1.33l1 1.14 4.64-3.38a1 1 0 0 1 1.18 1.61l-5.37 3.92a1 1 0 0 1-.56.19Z"/></svg><svg data-name="Layer 1" viewBox="0 0 96 96" id="support" xmlns="http://www.w3.org/2000/svg"><path d="M54.43 94h-39.3a6.67 6.67 0 0 1-6.66-6.67V8.67A6.67 6.67 0 0 1 15.13 2h39.3a6.67 6.67 0 0 1 6.66 6.67v8.66a1 1 0 0 1-2 0V8.67A4.67 4.67 0 0 0 54.43 4h-39.3a4.67 4.67 0 0 0-4.66 4.67v78.66A4.67 4.67 0 0 0 15.13 92h39.3a4.67 4.67 0 0 0 4.66-4.67V58.47a1 1 0 0 1 2 0v28.86A6.67 6.67 0 0 1 54.43 94Z"/><path d="M43.22 8.29H26.34a3.66 3.66 0 0 1-3.4-2.36L22 3.35a1 1 0 0 1 .11-.92A1 1 0 0 1 22.9 2h23.76a1 1 0 0 1 .82.43 1 1 0 0 1 .12.92l-1 2.58a3.68 3.68 0 0 1-3.38 2.36ZM24.35 4l.46 1.23a1.66 1.66 0 0 0 1.53 1.06h16.88a1.65 1.65 0 0 0 1.53-1.06L45.22 4ZM45.58 90.28H24a1 1 0 0 1 0-2h21.6a1 1 0 1 1 0 2ZM66.36 61.89a1 1 0 0 1-.46-.12c-12-6.21-32.91-4.57-39-3.92a4 4 0 0 1-4.12-2.35 36.19 36.19 0 0 1-2.95-10.68 4 4 0 0 1 2.34-4.14c5.59-2.58 24.41-11.9 31.51-23.37a1 1 0 1 1 1.7 1.05C48 30.3 28.69 39.85 23 42.5a2 2 0 0 0-1.19 2.08 34.47 34.47 0 0 0 2.78 10.1 2 2 0 0 0 2.09 1.18c6.27-.66 27.7-2.33 40.17 4.14a1 1 0 0 1-.46 1.89Z"/><path d="M22.72 57.38a3.47 3.47 0 0 1-3.17-2 29.57 29.57 0 0 1-2.41-8.75 3.45 3.45 0 0 1 2-3.56l1.37-.64.87 1.8-1.38.62a1.49 1.49 0 0 0-.86 1.51 28.2 28.2 0 0 0 2.25 8.16 1.47 1.47 0 0 0 1.51.85l1.55-.15a1 1 0 1 1 .18 2l-1.51.15ZM68 62.28c-2.29 0-4.88-1.93-7.4-5.57a52.79 52.79 0 0 1-6.81-15.53c-3.12-11.34-3.36-24.24 2.36-25.82s12.13 9.63 15.26 21a52.47 52.47 0 0 1 2.1 16.82c-.34 5.1-1.93 8.29-4.46 9a3.69 3.69 0 0 1-1.05.1ZM57.24 17.22a1.88 1.88 0 0 0-.53.07c-3.25.9-4.45 10.71-1 23.36a50.69 50.69 0 0 0 6.53 14.92c2.32 3.35 4.66 5.09 6.27 4.65s2.72-3.14 3-7.21a50.66 50.66 0 0 0-2-16.15c-3.31-11.99-8.92-19.64-12.27-19.64Z"/><path d="M56.66 47.67a1 1 0 0 1-.26-2l.93-.26a5 5 0 1 0-2.68-9.73l-.94.26a1 1 0 0 1-.53-1.93l.94-.26a7 7 0 0 1 3.74 13.59l-.93.25a.84.84 0 0 1-.27.08ZM40 79.61a5 5 0 0 1-1.22-.15A5 5 0 0 1 35.61 77c-4.9-9.17-4.31-20.17-4.28-20.63a1 1 0 0 1 2 .12c0 .1-.58 10.9 4 19.56a3 3 0 0 0 4.32 1.09l2.79-1.85c-2.77-2.35-4.15-4.47-4.4-8.52v-.43a4.63 4.63 0 0 0-.35-2 4.42 4.42 0 0 0-.7-.88 4.84 4.84 0 0 1-1.26-1.93c-.51-1.8.76-3.37 1.68-4.51a5.77 5.77 0 0 0 .78-1.26 1 1 0 0 1 1.84.76 7.18 7.18 0 0 1-1 1.74c-.73.91-1.55 1.92-1.32 2.73a3.15 3.15 0 0 0 .79 1.11 6.39 6.39 0 0 1 1 1.29 6.25 6.25 0 0 1 .59 2.8v.41c.23 3.83 1.57 5.48 4.7 7.94a1 1 0 0 1-.07 1.62l-3.92 2.6a5 5 0 0 1-2.8.85ZM64.73 33.55a1 1 0 0 1-.26-2c.16 0 .38-.35.45-.8A6.48 6.48 0 0 0 65 30a6.92 6.92 0 0 1 .2-1.42c.48-1.66 1.91-2.64 3.17-3.5s2.14-1.47 2.35-2.48a4.21 4.21 0 0 0 .07-.83 5.65 5.65 0 0 1 .21-1.42 4.19 4.19 0 0 1 2.61-2.64 10.4 10.4 0 0 1 3.17-.54 1 1 0 0 1 1.06.94 1 1 0 0 1-.94 1.06 8.59 8.59 0 0 0-2.57.4 2.24 2.24 0 0 0-1.4 1.32 3.76 3.76 0 0 0-.09.93 6.45 6.45 0 0 1-.11 1.2c-.38 1.79-1.87 2.81-3.18 3.72-1.08.73-2.09 1.43-2.37 2.4a4.34 4.34 0 0 0-.13 1c0 .32 0 .65-.11 1A2.82 2.82 0 0 1 65 33.51a.77.77 0 0 1-.27.04ZM68.05 38.3h-.29a1 1 0 0 1-1-1 1 1 0 0 1 1-1 8.21 8.21 0 0 0 4.37-1.46c.34-.2.68-.4 1-.61a17.8 17.8 0 0 1 3.81-2l.74-.23a4.09 4.09 0 0 0 1.92-.89 4 4 0 0 0 .37-.55 6.59 6.59 0 0 1 .51-.75 2.28 2.28 0 0 1 2.64-.81 1 1 0 0 1-.69 1.88.69.69 0 0 0-.31.23 3.77 3.77 0 0 0-.34.51 5.65 5.65 0 0 1-.59.84A5.67 5.67 0 0 1 78.33 34l-.67.2a16 16 0 0 0-3.37 1.76l-1.05.63a10.38 10.38 0 0 1-5.19 1.71ZM84.81 47.25a18.63 18.63 0 0 1-4.32-.69c-2-.49-3.92-1-5.62-.32l-.22.08a3 3 0 0 1-2.09.25 3.09 3.09 0 0 1-1.11-.72l-.18-.17a2.31 2.31 0 0 0-2.77 0 1 1 0 1 1-1.23-1.58 4.27 4.27 0 0 1 5.28.1l.26.23a1.56 1.56 0 0 0 .36.29 1.87 1.87 0 0 0 .74-.21l.26-.1c2.27-.84 4.57-.29 6.8.26 1.88.45 3.67.89 5.31.45a1 1 0 0 1 .51 1.88 7.89 7.89 0 0 1-1.98.25Z"/></svg></svg>