<?xml version="1.0" encoding="utf-8"?><svg viewBox="0 0 96 96" xmlns="http://www.w3.org/2000/svg" xmlns:xlink="http://www.w3.org/1999/xlink"><style>:root>svg{display:none}:root>svg:target{display:block}</style><svg data-name="Layer 1" viewBox="0 0 96 96" id="efficiency" xmlns="http://www.w3.org/2000/svg"><path d="M41.35 77a37.48 37.48 0 1 1 29.16-13.94A1 1 0 0 1 69 61.8a35.39 35.39 0 1 0-10.23 8.65 1 1 0 1 1 1 1.74A37.55 37.55 0 0 1 41.35 77Z"/><path d="M41.35 54.49c-5.46 0-9.9-3.57-9.9-8a1 1 0 0 1 2 0c0 3.28 3.54 6 7.9 6s7.9-2.68 7.9-6c0-2.76-2.58-4.66-8.13-6-6.51-1.56-9.67-4.16-9.67-7.94 0-4.39 4.44-8 9.9-8s9.9 3.57 9.9 8a1 1 0 0 1-2 0c0-3.28-3.54-6-7.9-6s-7.9 2.68-7.9 6c0 2.72 2.66 4.68 8.13 6 4.15 1 9.67 2.9 9.67 7.94 0 4.43-4.44 8-9.9 8Z"/><path d="M41.35 59.33a1 1 0 0 1-1-1V20.65a1 1 0 0 1 2 0v37.68a1 1 0 0 1-1 1ZM83.7 94a1 1 0 0 1-.71-.29l-13.5-13.5-3 8a1 1 0 0 1-.93.65 1 1 0 0 1-.94-.64L52.39 56.45a1 1 0 0 1 .23-1.07 1 1 0 0 1 1.07-.22L85.4 67.42a1 1 0 0 1 0 1.87l-8 3 12.48 12.4A1 1 0 0 1 90 86l-5.47 7.6a1 1 0 0 1-.73.42ZM69.1 77.4a1 1 0 0 1 .71.3l13.77 13.76 4.28-5.95-12.93-12.94a1 1 0 0 1 .36-1.64l6.94-2.6-27.16-10.49L65.57 85l2.6-6.94a1 1 0 0 1 .72-.63ZM80.4 60.16a1 1 0 0 1-.86-.48 1 1 0 0 1 .34-1.37l10.74-6.51a1 1 0 0 1 1.38.34 1 1 0 0 1-.34 1.37L80.91 60a1 1 0 0 1-.51.16ZM81.3 53.66a1 1 0 0 1-.49-.14 1 1 0 0 1-.37-1.36l5.29-9.23a1 1 0 0 1 1.74 1l-5.3 9.23a1 1 0 0 1-.87.5ZM46.23 91.3a1 1 0 0 1-.82-.44 1 1 0 0 1 .26-1.39l10.38-7.07a1 1 0 0 1 1.13 1.65L46.8 91.13a1.08 1.08 0 0 1-.57.17ZM39.72 83.34a1 1 0 0 1-.1-2l10.6-1a1 1 0 0 1 .19 2l-10.6 1Z"/></svg><svg viewBox="0 0 80 80" id="hero--1" xmlns="http://www.w3.org/2000/svg"><path fill="#7633ff" d="M5 40C5 20.67 20.67 5 40 5s35 15.67 35 35-15.67 35-35 35S5 59.33 5 40ZM40 2C19.013 2 2 19.013 2 40s17.013 38 38 38 38-17.013 38-38S60.987 2 40 2Zm19.06 28.06a1.5 1.5 0 0 0-2.12-2.12L36 48.878l-8.94-8.94a1.5 1.5 0 0 0-2.12 2.122l10 10a1.5 1.5 0 0 0 2.12 0l22-22Z"/></svg><svg viewBox="0 0 48 48" id="hero--2" xmlns="http://www.w3.org/2000/svg"><path fill="#7633ff" d="M24 43.2c-1.78 0-7.54-4.55-11.6-8.62C8 30.18 2.8 23.7 2.8 17.83a12.88 12.88 0 0 1 12.7-13c2.91 0 5.77 1.48 8.5 4.39 2.73-2.91 5.59-4.39 8.5-4.39a12.88 12.88 0 0 1 12.7 13c0 5.87-5.22 12.35-9.6 16.75-4.06 4.07-9.82 8.62-11.6 8.62Zm-8.5-36A10.48 10.48 0 0 0 5.2 17.83c0 9.34 16.39 22.09 18.8 23 2.41-.86 18.8-13.61 18.8-23A10.48 10.48 0 0 0 32.5 7.2c-2.5 0-5.05 1.54-7.58 4.57a1.23 1.23 0 0 1-1.84 0C20.55 8.74 18 7.2 15.5 7.2Z"/></svg><svg viewBox="0 0 80 80" id="hero--3" xmlns="http://www.w3.org/2000/svg"><path fill="#7633ff" d="M14.213 16.334A34.875 34.875 0 0 0 5 40a34.874 34.874 0 0 0 9.213 23.665l13.462-13.462A15.935 15.935 0 0 1 24 40c0-3.878 1.38-7.434 3.675-10.203L14.213 16.334Zm16.603 32.867a.734.734 0 0 0-.009-.009l-.008-.009A12.96 12.96 0 0 1 27 40a12.96 12.96 0 0 1 3.806-9.19A12.96 12.96 0 0 1 40 27c7.18 0 13 5.82 13 13s-5.82 13-13 13a12.96 12.96 0 0 1-9.184-3.799Zm-1.02 3.124L16.334 65.787A34.874 34.874 0 0 0 40 75a34.874 34.874 0 0 0 23.666-9.213L50.204 52.325A15.935 15.935 0 0 1 40 56a15.94 15.94 0 0 1-10.204-3.675ZM13.14 66.879C20.015 73.75 29.511 78 40 78c10.487 0 19.982-4.248 26.858-11.118l.012-.012.013-.013C73.752 59.982 78 50.487 78 40c0-10.49-4.25-19.986-11.122-26.862l-.008-.008-.007-.008C59.986 6.25 50.49 2 40 2 19.013 2 2 19.013 2 40c0 10.489 4.25 19.985 11.12 26.86a.408.408 0 0 0 .01.01l.009.01ZM56 40c0-3.878-1.38-7.434-3.675-10.203l13.462-13.462A34.874 34.874 0 0 1 75 40a34.874 34.874 0 0 1-9.213 23.665L52.325 50.203A15.935 15.935 0 0 0 56 40Zm-5.797-12.325A15.935 15.935 0 0 0 40 24c-3.878 0-7.434 1.38-10.203 3.675L16.334 14.213A34.875 34.875 0 0 1 40 5a34.874 34.874 0 0 1 23.665 9.213L50.203 27.675Z" fill-rule="evenodd"/></svg><svg data-name="Layer 1" viewBox="0 0 96 96" id="satisfaction" xmlns="http://www.w3.org/2000/svg"><path d="M57.88 72c-4.68 0-9.19-.27-11-.89a1 1 0 0 1 .63-1.89c3.15 1.05 17.87 1 22.5 0 .74-.17 2-.56 2.14-1.34s-.86-2.24-2.48-3.37c-3-2.09-10.54-1.61-15-1.33a19.65 19.65 0 0 1-4.57 0c-1.95-.52-7.33-2.8-15.37-6.3-9.16-4-20.85 2.23-21 2.29a1 1 0 0 1-1.36-.41 1 1 0 0 1 .41-1.35c.51-.28 12.66-6.74 22.72-2.36 6.69 2.91 13.15 5.68 15.09 6.2a27.61 27.61 0 0 0 3.92-.11c5.07-.32 12.73-.8 16.31 1.68 2.4 1.67 3.63 3.69 3.3 5.4-.19 1-1 2.3-3.65 2.91a71.51 71.51 0 0 1-12.59.87Z"/><path d="M52.24 83.94c-1.45 0-6.08-1-13.52-2.64-5.88-1.3-12-2.64-14.15-2.83a22.42 22.42 0 0 0-7.63.63 1 1 0 1 1-.58-1.92 24.37 24.37 0 0 1 8.38-.7c2.32.2 8.47 1.56 14.42 2.87 5.5 1.21 11.74 2.59 13.08 2.59 1.5 0 10.94-3.37 24.05-8.59a7.65 7.65 0 0 0 1.82-1l13.11-10a2 2 0 0 0-2.1-3.35l-15.84 8a1 1 0 0 1-.9-1.78l15.83-8a4 4 0 0 1 4.22 6.72l-13.11 10A9.76 9.76 0 0 1 77 75.2c-8.17 3.27-22.28 8.74-24.76 8.74Z"/><path d="M7.68 83.4a1 1 0 0 1-1-.82l-4.51-24.2A1 1 0 0 1 3 57.21l9.53-1.92a1 1 0 0 1 .77.15 1 1 0 0 1 .42.66l4.18 24.43a1 1 0 0 1-.81 1.15l-9.23 1.7ZM4.32 59l4.16 22.23 7.28-1.34-3.88-22.44ZM45.44 31.46a9.78 9.78 0 1 1 9.79-9.78 9.79 9.79 0 0 1-9.79 9.78Zm0-17.56a7.78 7.78 0 1 0 7.79 7.78 7.79 7.79 0 0 0-7.79-7.78Z"/><path d="M54.6 48.08H27.41a1 1 0 0 1-1-1A17.63 17.63 0 0 1 44 29.46h2.85a17.5 17.5 0 0 1 13.92 6.83 1 1 0 1 1-1.58 1.22 15.53 15.53 0 0 0-12.34-6H44a15.64 15.64 0 0 0-15.56 14.57H54.6a1 1 0 1 1 0 2Z"/><path d="M62 53.47a8.79 8.79 0 1 1 8.78-8.79A8.79 8.79 0 0 1 62 53.47Zm0-15.57a6.79 6.79 0 1 0 6.78 6.78A6.79 6.79 0 0 0 62 37.9Z"/><path d="M60.14 47.64a1 1 0 0 1-.74-.33l-1.63-1.82a1 1 0 1 1 1.48-1.33l1 1.14 4.64-3.38a1 1 0 0 1 1.18 1.61l-5.37 3.92a1 1 0 0 1-.56.19Z"/></svg><svg data-name="Layer 1" viewBox="0 0 96 96" id="support" xmlns="http://www.w3.org/2000/svg"><path d="M54.43 94h-39.3a6.67 6.67 0 0 1-6.66-6.67V8.67A6.67 6.67 0 0 1 15.13 2h39.3a6.67 6.67 0 0 1 6.66 6.67v8.66a1 1 0 0 1-2 0V8.67A4.67 4.67 0 0 0 54.43 4h-39.3a4.67 4.67 0 0 0-4.66 4.67v78.66A4.67 4.67 0 0 0 15.13 92h39.3a4.67 4.67 0 0 0 4.66-4.67V58.47a1 1 0 0 1 2 0v28.86A6.67 6.67 0 0 1 54.43 94Z"/><path d="M43.22 8.29H26.34a3.66 3.66 0 0 1-3.4-2.36L22 3.35a1 1 0 0 1 .11-.92A1 1 0 0 1 22.9 2h23.76a1 1 0 0 1 .82.43 1 1 0 0 1 .12.92l-1 2.58a3.68 3.68 0 0 1-3.38 2.36ZM24.35 4l.46 1.23a1.66 1.66 0 0 0 1.53 1.06h16.88a1.65 1.65 0 0 0 1.53-1.06L45.22 4ZM45.58 90.28H24a1 1 0 0 1 0-2h21.6a1 1 0 1 1 0 2ZM66.36 61.89a1 1 0 0 1-.46-.12c-12-6.21-32.91-4.57-39-3.92a4 4 0 0 1-4.12-2.35 36.19 36.19 0 0 1-2.95-10.68 4 4 0 0 1 2.34-4.14c5.59-2.58 24.41-11.9 31.51-23.37a1 1 0 1 1 1.7 1.05C48 30.3 28.69 39.85 23 42.5a2 2 0 0 0-1.19 2.08 34.47 34.47 0 0 0 2.78 10.1 2 2 0 0 0 2.09 1.18c6.27-.66 27.7-2.33 40.17 4.14a1 1 0 0 1-.46 1.89Z"/><path d="M22.72 57.38a3.47 3.47 0 0 1-3.17-2 29.57 29.57 0 0 1-2.41-8.75 3.45 3.45 0 0 1 2-3.56l1.37-.64.87 1.8-1.38.62a1.49 1.49 0 0 0-.86 1.51 28.2 28.2 0 0 0 2.25 8.16 1.47 1.47 0 0 0 1.51.85l1.55-.15a1 1 0 1 1 .18 2l-1.51.15ZM68 62.28c-2.29 0-4.88-1.93-7.4-5.57a52.79 52.79 0 0 1-6.81-15.53c-3.12-11.34-3.36-24.24 2.36-25.82s12.13 9.63 15.26 21a52.47 52.47 0 0 1 2.1 16.82c-.34 5.1-1.93 8.29-4.46 9a3.69 3.69 0 0 1-1.05.1ZM57.24 17.22a1.88 1.88 0 0 0-.53.07c-3.25.9-4.45 10.71-1 23.36a50.69 50.69 0 0 0 6.53 14.92c2.32 3.35 4.66 5.09 6.27 4.65s2.72-3.14 3-7.21a50.66 50.66 0 0 0-2-16.15c-3.31-11.99-8.92-19.64-12.27-19.64Z"/><path d="M56.66 47.67a1 1 0 0 1-.26-2l.93-.26a5 5 0 1 0-2.68-9.73l-.94.26a1 1 0 0 1-.53-1.93l.94-.26a7 7 0 0 1 3.74 13.59l-.93.25a.84.84 0 0 1-.27.08ZM40 79.61a5 5 0 0 1-1.22-.15A5 5 0 0 1 35.61 77c-4.9-9.17-4.31-20.17-4.28-20.63a1 1 0 0 1 2 .12c0 .1-.58 10.9 4 19.56a3 3 0 0 0 4.32 1.09l2.79-1.85c-2.77-2.35-4.15-4.47-4.4-8.52v-.43a4.63 4.63 0 0 0-.35-2 4.42 4.42 0 0 0-.7-.88 4.84 4.84 0 0 1-1.26-1.93c-.51-1.8.76-3.37 1.68-4.51a5.77 5.77 0 0 0 .78-1.26 1 1 0 0 1 1.84.76 7.18 7.18 0 0 1-1 1.74c-.73.91-1.55 1.92-1.32 2.73a3.15 3.15 0 0 0 .79 1.11 6.39 6.39 0 0 1 1 1.29 6.25 6.25 0 0 1 .59 2.8v.41c.23 3.83 1.57 5.48 4.7 7.94a1 1 0 0 1-.07 1.62l-3.92 2.6a5 5 0 0 1-2.8.85ZM64.73 33.55a1 1 0 0 1-.26-2c.16 0 .38-.35.45-.8A6.48 6.48 0 0 0 65 30a6.92 6.92 0 0 1 .2-1.42c.48-1.66 1.91-2.64 3.17-3.5s2.14-1.47 2.35-2.48a4.21 4.21 0 0 0 .07-.83 5.65 5.65 0 0 1 .21-1.42 4.19 4.19 0 0 1 2.61-2.64 10.4 10.4 0 0 1 3.17-.54 1 1 0 0 1 1.06.94 1 1 0 0 1-.94 1.06 8.59 8.59 0 0 0-2.57.4 2.24 2.24 0 0 0-1.4 1.32 3.76 3.76 0 0 0-.09.93 6.45 6.45 0 0 1-.11 1.2c-.38 1.79-1.87 2.81-3.18 3.72-1.08.73-2.09 1.43-2.37 2.4a4.34 4.34 0 0 0-.13 1c0 .32 0 .65-.11 1A2.82 2.82 0 0 1 65 33.51a.77.77 0 0 1-.27.04ZM68.05 38.3h-.29a1 1 0 0 1-1-1 1 1 0 0 1 1-1 8.21 8.21 0 0 0 4.37-1.46c.34-.2.68-.4 1-.61a17.8 17.8 0 0 1 3.81-2l.74-.23a4.09 4.09 0 0 0 1.92-.89 4 4 0 0 0 .37-.55 6.59 6.59 0 0 1 .51-.75 2.28 2.28 0 0 1 2.64-.81 1 1 0 0 1-.69 1.88.69.69 0 0 0-.31.23 3.77 3.77 0 0 0-.34.51 5.65 5.65 0 0 1-.59.84A5.67 5.67 0 0 1 78.33 34l-.67.2a16 16 0 0 0-3.37 1.76l-1.05.63a10.38 10.38 0 0 1-5.19 1.71ZM84.81 47.25a18.63 18.63 0 0 1-4.32-.69c-2-.49-3.92-1-5.62-.32l-.22.08a3 3 0 0 1-2.09.25 3.09 3.09 0 0 1-1.11-.72l-.18-.17a2.31 2.31 0 0 0-2.77 0 1 1 0 1 1-1.23-1.58 4.27 4.27 0 0 1 5.28.1l.26.23a1.56 1.56 0 0 0 .36.29 1.87 1.87 0 0 0 .74-.21l.26-.1c2.27-.84 4.57-.29 6.8.26 1.88.45 3.67.89 5.31.45a1 1 0 0 1 .51 1.88 7.89 7.89 0 0 1-1.98.25Z"/></svg><svg class="gsvg-icon-global-coverage" viewBox="0 0 96 96" id="transfer--1" xmlns="http://www.w3.org/2000/svg"><path d="M2.865 39.079A46.164 46.164 0 0 0 2 48c0 25.405 20.595 46 46 46s46-20.595 46-46c0-4.232-.572-8.331-1.642-12.223l-10.391-6.613a1.054 1.054 0 0 0-.565-.164c-1.023 0-1.444 1.313-.611 1.908l6.808 4.863A5.731 5.731 0 0 1 90 40.436v3.935a7 7 0 0 1-.961 3.54L73.968 73.62A4.815 4.815 0 0 1 65 71.186v-12.82a5 5 0 0 0-2.393-4.266l-10.084-6.163a7 7 0 0 1-2.376-9.534L58.74 23.86a5.822 5.822 0 0 1 7.838-2.127l4.604 2.558a1.224 1.224 0 0 0 1.251-2.102l-8.695-5.533A4.178 4.178 0 0 0 61.489 16h-2.192c-3.261 0-5.518-3.257-4.373-6.31a2.67 2.67 0 0 0-1.265-3.305l-8.264-4.312a45.724 45.724 0 0 0-18.96 5.286 1.062 1.062 0 0 1-.078.159L12.72 30.086a5.002 5.002 0 0 0-.72 2.586v1.975a5 5 0 0 0 2.38 4.259l13.421 8.256a7 7 0 0 1 2.565 9.149l-4.491 8.783a4.999 4.999 0 0 0 1.768 6.494l4.497 2.861a3.132 3.132 0 1 1-3.404 5.256L11.148 68.113A7 7 0 0 1 8 62.269V44.946a5.001 5.001 0 0 0-2.481-4.319l-2.654-1.548zm.446-2.03a.97.97 0 0 1 .192.087L6.527 38.9A6.999 6.999 0 0 1 10 44.946v17.322c0 1.681.845 3.25 2.248 4.175l17.588 11.592a1.13 1.13 0 1 0 1.23-1.899l-4.497-2.861a7 7 0 0 1-2.475-9.092l4.49-8.783a5 5 0 0 0-1.832-6.535l-13.421-8.256A7.003 7.003 0 0 1 10 34.647v-1.975c0-1.276.349-2.528 1.009-3.62L22.825 9.494c-9.604 6.292-16.711 16.08-19.514 27.555zm88.125-4.229c-6.1-17.458-22.429-30.116-41.803-30.792l4.95 2.583a4.67 4.67 0 0 1 2.213 5.781A2.67 2.67 0 0 0 59.297 14h2.192a6.19 6.19 0 0 1 3.323.968l8.695 5.533A3.224 3.224 0 0 1 75 23.221c0 2.458-2.641 4.012-4.789 2.818l-4.604-2.558a3.82 3.82 0 0 0-5.145 1.396l-8.593 14.542a5 5 0 0 0 1.697 6.81l10.084 6.163A7 7 0 0 1 67 58.365v12.82a2.814 2.814 0 0 0 5.242 1.424L87.313 46.9c.45-.767.687-1.64.687-2.529v-3.935a3.733 3.733 0 0 0-1.563-3.038l-6.808-4.863C77.213 30.809 78.434 27 81.402 27c.58 0 1.149.166 1.638.477l8.396 5.343zM45.81.049A48.226 48.226 0 0 1 48 0c26.51 0 48 21.49 48 48S74.51 96 48 96 0 74.51 0 48C0 22.466 19.937 1.589 45.093.087a.995.995 0 0 1 .717-.038zm41.421 61.768a2.626 2.626 0 0 0-4.152.582l-3.481 6.265a2.845 2.845 0 0 0-.058 2.654c1.023 2.047 3.921 2.109 5.032.109l2.927-5.269c.328-.59.5-1.253.5-1.928v-.557a2.62 2.62 0 0 0-.768-1.856zm-2.403 1.552a.626.626 0 0 1 1.172.304v.557c0 .335-.085.664-.248.957l-2.927 5.269a.845.845 0 1 1-1.478-.822l3.481-6.265zM50.563 9.977a1.5 1.5 0 0 0-1.727-.277c-.512.256-.836.78-.836 1.348v.528c0 .555.278 1.074.74 1.382l.252.168A1.292 1.292 0 0 0 51 12.051v-1.018c0-.396-.157-.776-.437-1.056zm-2.621-2.066a3.499 3.499 0 0 1 4.036.652A3.495 3.495 0 0 1 53 11.032v1.018a3.291 3.291 0 0 1-5.118 2.739l-.252-.168A3.659 3.659 0 0 1 46 11.576v-.528c0-1.329.756-2.544 1.942-3.137zM18.472 32a1.472 1.472 0 0 0-.658 2.789l1.368.684a.963.963 0 0 0 1.291-1.291l-.684-1.368A1.473 1.473 0 0 0 18.472 32zM15 33.472a3.473 3.473 0 0 1 6.578-1.553l.684 1.368a2.961 2.961 0 0 1-3.974 3.974l-1.369-.684A3.47 3.47 0 0 1 15 33.472z" fill="#141414"/><path d="M5.842 70.976c.373.684.764 1.361 1.173 2.03-2.443 4.571-4.04 8.615-4.704 11.919-.747 3.713-.269 6.213 1.125 7.606 1.393 1.393 3.893 1.872 7.606 1.125 3.668-.738 8.25-2.626 13.452-5.545 10.393-5.83 23.059-15.656 35.51-28.107A220.949 220.949 0 0 0 71.077 48.1a5 5 0 0 1 6.193-7.556c4.414-5.684 8.077-11.123 10.841-16.05 2.918-5.203 4.806-9.784 5.545-13.452.747-3.713.269-6.213-1.125-7.606-1.393-1.393-3.893-1.872-7.606-1.125-3.303.665-7.347 2.262-11.919 4.704-.669-.409-1.346-.8-2.03-1.173 5.099-2.82 9.717-4.72 13.554-5.492 3.912-.787 7.293-.45 9.415 1.671 2.121 2.121 2.458 5.503 1.671 9.415-.796 3.957-2.793 8.746-5.761 14.036C87.034 30.5 83.31 36.028 78.834 41.79a5 5 0 0 1-6.23 7.6 222.962 222.962 0 0 1-11.187 12.028C48.875 73.96 36.065 83.912 25.472 89.855c-5.29 2.968-10.079 4.965-14.036 5.761-3.912.787-7.294.45-9.415-1.671C-.1 91.823-.438 88.442.35 84.53c.772-3.837 2.672-8.455 5.492-13.554zM78 45a3 3 0 1 1-6 0 3 3 0 0 1 6 0z" fill-rule="evenodd" fill="#73f"/></svg></svg>