<svg xmlns="http://www.w3.org/2000/svg" class="svg-icon-global-coverage" height="96" width="96" version="1.1" viewBox="0 0 96 96"><path d="M2.865,39.079C2.297,41.965,2,44.948,2,48c0,25.405,20.595,46,46,46s46-20.595,46-46 c0-4.232-0.572-8.331-1.642-12.223l-10.391-6.613C81.798,29.057,81.603,29,81.402,29c-1.023,0-1.444,1.313-0.611,1.908l6.808,4.863 C89.106,36.847,90,38.584,90,40.436v3.935c0,1.245-0.332,2.467-0.961,3.54L73.968,73.62C73.104,75.094,71.523,76,69.814,76 C67.156,76,65,73.844,65,71.186v-12.82c0-1.742-0.907-3.358-2.393-4.266l-10.084-6.163c-3.264-1.995-4.323-6.241-2.376-9.534 L58.74,23.86c1.047-1.772,2.953-2.86,5.011-2.86c0.989,0,1.962,0.252,2.827,0.733l4.604,2.558C71.998,24.744,73,24.154,73,23.221 c0-0.418-0.214-0.808-0.567-1.032l-8.695-5.533C63.066,16.227,62.286,16,61.489,16h-2.192c-3.261,0-5.518-3.257-4.373-6.31 c0.474-1.263-0.069-2.681-1.265-3.305l-8.264-4.312c-6.823,0.381-13.25,2.249-18.96,5.286c-0.021,0.054-0.047,0.107-0.078,0.159 L12.72,30.086C12.249,30.866,12,31.76,12,32.672v1.975c0,1.737,0.901,3.349,2.38,4.259l13.421,8.256 c3.111,1.913,4.228,5.897,2.565,9.149l-4.491,8.783c-1.174,2.297-0.409,5.11,1.768,6.494l4.497,2.861 c1.514,0.964,1.91,3.001,0.867,4.462c-0.979,1.37-2.865,1.721-4.271,0.794L11.148,68.113C9.183,66.818,8,64.622,8,62.269V44.946 c0-1.778-0.945-3.423-2.481-4.319L2.865,39.079z M3.311,37.049c0.066,0.022,0.13,0.05,0.192,0.087L6.527,38.9 C8.678,40.154,10,42.457,10,44.946v17.322c0,1.681,0.845,3.25,2.248,4.175l17.588,11.592c0.508,0.335,1.19,0.208,1.543-0.287 c0.377-0.528,0.234-1.264-0.313-1.612l-4.497-2.861c-3.047-1.939-4.118-5.877-2.475-9.092l4.49-8.783 c1.188-2.323,0.39-5.168-1.832-6.535l-13.421-8.256C11.262,39.335,10,37.078,10,34.647v-1.975c0-1.276,0.349-2.528,1.009-3.62 L22.825,9.494C13.221,15.786,6.114,25.574,3.311,37.049z M91.436,32.82C85.336,15.362,69.007,2.704,49.633,2.028l4.95,2.583 c2.092,1.091,3.041,3.571,2.213,5.781C56.141,12.138,57.432,14,59.297,14h2.192c1.177,0,2.33,0.336,3.323,0.968l8.695,5.533 c0.93,0.592,1.493,1.618,1.493,2.72c0,2.458-2.641,4.012-4.789,2.818l-4.604-2.558C65.039,23.166,64.4,23,63.751,23 c-1.351,0-2.602,0.714-3.289,1.877l-8.593,14.542c-1.39,2.353-0.634,5.385,1.697,6.81l10.084,6.163 c2.081,1.272,3.35,3.535,3.35,5.973v12.82C67,72.74,68.26,74,69.814,74c0.999,0,1.923-0.529,2.428-1.391L87.313,46.9 C87.763,46.133,88,45.26,88,44.371v-3.935c0-1.206-0.582-2.337-1.563-3.038l-6.808-4.863C77.213,30.809,78.434,27,81.402,27 c0.58,0,1.149,0.166,1.638,0.477L91.436,32.82z M45.81,0.049C46.536,0.016,47.266,0,48,0c26.51,0,48,21.49,48,48S74.51,96,48,96 S0,74.51,0,48C0,22.466,19.937,1.589,45.093,0.087C45.314-0.012,45.57-0.03,45.81,0.049z M87.231,61.817 c-1.234-1.233-3.305-0.943-4.152,0.582l-3.481,6.265c-0.456,0.821-0.478,1.814-0.058,2.654c1.023,2.047,3.921,2.109,5.032,0.109 l2.927-5.269c0.328-0.59,0.5-1.253,0.5-1.928v-0.557C88,62.977,87.723,62.309,87.231,61.817z M84.828,63.369 c0.202-0.363,0.695-0.432,0.989-0.139C85.934,63.348,86,63.507,86,63.673v0.557c0,0.335-0.085,0.664-0.248,0.957l-2.927,5.269 c-0.33,0.594-1.191,0.576-1.495-0.033c-0.125-0.25-0.118-0.545,0.017-0.789L84.828,63.369z M50.563,9.977 c-0.452-0.452-1.15-0.565-1.727-0.277C48.324,9.956,48,10.48,48,11.048v0.528c0,0.555,0.278,1.074,0.74,1.382l0.252,0.168 c0.512,0.342,1.195,0.274,1.63-0.161C50.864,12.722,51,12.393,51,12.051v-1.018C51,10.637,50.843,10.257,50.563,9.977z M47.942,7.911c1.342-0.671,2.971-0.413,4.036,0.652C52.632,9.218,53,10.106,53,11.032v1.018c0,0.873-0.347,1.71-0.964,2.328 c-1.11,1.11-2.848,1.282-4.154,0.411l-0.252-0.168C46.612,13.943,46,12.8,46,11.576v-0.528C46,9.719,46.756,8.504,47.942,7.911z M18.472,32C17.659,32,17,32.659,17,33.472c0,0.558,0.315,1.067,0.814,1.317l1.368,0.684c0.37,0.185,0.818,0.113,1.111-0.18 c0.293-0.293,0.365-0.74,0.18-1.111l-0.684-1.368C19.539,32.315,19.03,32,18.472,32z M15,33.472C15,31.555,16.555,30,18.472,30 c1.315,0,2.517,0.743,3.106,1.919l0.684,1.368c0.57,1.14,0.347,2.518-0.555,3.419c-0.902,0.902-2.279,1.125-3.419,0.555 l-1.369-0.684C15.743,35.99,15,34.787,15,33.472z" fill="#141414"></path><path d="M5.842,70.976c0.373,0.684,0.764,1.361,1.173,2.03c-2.443,4.571-4.04,8.615-4.704,11.919 c-0.747,3.713-0.269,6.213,1.125,7.606c1.393,1.393,3.893,1.872,7.606,1.125c3.668-0.738,8.25-2.626,13.452-5.545 c10.393-5.83,23.059-15.656,35.51-28.107c3.973-3.973,7.679-7.968,11.073-11.904C70.402,47.248,70,46.171,70,45c0-2.761,2.239-5,5-5 c0.817,0,1.589,0.196,2.27,0.544c4.414-5.684,8.077-11.123,10.841-16.05c2.918-5.203,4.806-9.784,5.545-13.452 c0.747-3.713,0.269-6.213-1.125-7.606c-1.393-1.393-3.893-1.872-7.606-1.125c-3.303,0.665-7.347,2.262-11.919,4.704 c-0.669-0.409-1.346-0.8-2.03-1.173c5.099-2.82,9.717-4.72,13.554-5.492c3.912-0.787,7.293-0.45,9.415,1.671 c2.121,2.121,2.458,5.503,1.671,9.415c-0.796,3.957-2.793,8.746-5.761,14.036C87.034,30.5,83.31,36.028,78.834,41.79 C79.562,42.659,80,43.778,80,45c0,2.761-2.239,5-5,5c-0.868,0-1.684-0.221-2.396-0.61c-3.433,3.982-7.178,8.019-11.187,12.028 C48.875,73.96,36.065,83.912,25.472,89.855c-5.29,2.968-10.079,4.965-14.036,5.761c-3.912,0.787-7.294,0.45-9.415-1.671 c-2.121-2.122-2.459-5.503-1.671-9.415C1.122,80.693,3.022,76.075,5.842,70.976z M78,45c0,1.657-1.343,3-3,3s-3-1.343-3-3 s1.343-3,3-3S78,43.343,78,45z" fill-rule="evenodd" fill="#73f"></path></svg>