<svg xmlns="http://www.w3.org/2000/svg" class="svg-icon-global-coverage" height="96" width="96"><path d="M2.865 39.079A46.164 46.164 0 002 48c0 25.405 20.595 46 46 46s46-20.595 46-46c0-4.232-.572-8.331-1.642-12.223l-10.391-6.613a1.054 1.054 0 00-.565-.164c-1.023 0-1.444 1.313-.611 1.908l6.808 4.863A5.731 5.731 0 0190 40.436v3.935a7 7 0 01-.961 3.54L73.968 73.62A4.815 4.815 0 0165 71.186v-12.82a5 5 0 00-2.393-4.266l-10.084-6.163a7 7 0 01-2.376-9.534L58.74 23.86a5.822 5.822 0 017.838-2.127l4.604 2.558a1.224 1.224 0 001.251-2.102l-8.695-5.533A4.178 4.178 0 0061.489 16h-2.192c-3.261 0-5.518-3.257-4.373-6.31a2.67 2.67 0 00-1.265-3.305l-8.264-4.312a45.724 45.724 0 00-18.96 5.286 1.062 1.062 0 01-.078.159L12.72 30.086a5.002 5.002 0 00-.72 2.586v1.975a5 5 0 002.38 4.259l13.421 8.256a7 7 0 012.565 9.149l-4.491 8.783a4.999 4.999 0 001.768 6.494l4.497 2.861a3.132 3.132 0 11-3.404 5.256L11.148 68.113A7 7 0 018 62.269V44.946a5.001 5.001 0 00-2.481-4.319l-2.654-1.548zm.446-2.03a.97.97 0 01.192.087L6.527 38.9A6.999 6.999 0 0110 44.946v17.322c0 1.681.845 3.25 2.248 4.175l17.588 11.592a1.13 1.13 0 101.23-1.899l-4.497-2.861a7 7 0 01-2.475-9.092l4.49-8.783a5 5 0 00-1.832-6.535l-13.421-8.256A7.003 7.003 0 0110 34.647v-1.975c0-1.276.349-2.528 1.009-3.62L22.825 9.494c-9.604 6.292-16.711 16.08-19.514 27.555zm88.125-4.229c-6.1-17.458-22.429-30.116-41.803-30.792l4.95 2.583a4.67 4.67 0 012.213 5.781A2.67 2.67 0 0059.297 14h2.192a6.19 6.19 0 013.323.968l8.695 5.533A3.224 3.224 0 0175 23.221c0 2.458-2.641 4.012-4.789 2.818l-4.604-2.558a3.82 3.82 0 00-5.145 1.396l-8.593 14.542a5 5 0 001.697 6.81l10.084 6.163A7 7 0 0167 58.365v12.82a2.814 2.814 0 005.242 1.424L87.313 46.9c.45-.767.687-1.64.687-2.529v-3.935a3.733 3.733 0 00-1.563-3.038l-6.808-4.863C77.213 30.809 78.434 27 81.402 27c.58 0 1.149.166 1.638.477l8.396 5.343zM45.81.049A48.226 48.226 0 0148 0c26.51 0 48 21.49 48 48S74.51 96 48 96 0 74.51 0 48C0 22.466 19.937 1.589 45.093.087a.995.995 0 01.717-.038zm41.421 61.768a2.626 2.626 0 00-4.152.582l-3.481 6.265a2.845 2.845 0 00-.058 2.654c1.023 2.047 3.921 2.109 5.032.109l2.927-5.269c.328-.59.5-1.253.5-1.928v-.557a2.62 2.62 0 00-.768-1.856zm-2.403 1.552a.626.626 0 011.172.304v.557c0 .335-.085.664-.248.957l-2.927 5.269a.845.845 0 11-1.478-.822l3.481-6.265zM50.563 9.977a1.5 1.5 0 00-1.727-.277c-.512.256-.836.78-.836 1.348v.528c0 .555.278 1.074.74 1.382l.252.168A1.292 1.292 0 0051 12.051v-1.018c0-.396-.157-.776-.437-1.056zm-2.621-2.066a3.499 3.499 0 014.036.652A3.495 3.495 0 0153 11.032v1.018a3.291 3.291 0 01-5.118 2.739l-.252-.168A3.659 3.659 0 0146 11.576v-.528c0-1.329.756-2.544 1.942-3.137zM18.472 32a1.472 1.472 0 00-.658 2.789l1.368.684a.963.963 0 001.291-1.291l-.684-1.368A1.473 1.473 0 0018.472 32zM15 33.472a3.473 3.473 0 016.578-1.553l.684 1.368a2.961 2.961 0 01-3.974 3.974l-1.369-.684A3.47 3.47 0 0115 33.472z" fill="#141414"/><path d="M5.842 70.976c.373.684.764 1.361 1.173 2.03-2.443 4.571-4.04 8.615-4.704 11.919-.747 3.713-.269 6.213 1.125 7.606 1.393 1.393 3.893 1.872 7.606 1.125 3.668-.738 8.25-2.626 13.452-5.545 10.393-5.83 23.059-15.656 35.51-28.107A220.949 220.949 0 0071.077 48.1a5 5 0 016.193-7.556c4.414-5.684 8.077-11.123 10.841-16.05 2.918-5.203 4.806-9.784 5.545-13.452.747-3.713.269-6.213-1.125-7.606-1.393-1.393-3.893-1.872-7.606-1.125-3.303.665-7.347 2.262-11.919 4.704-.669-.409-1.346-.8-2.03-1.173 5.099-2.82 9.717-4.72 13.554-5.492 3.912-.787 7.293-.45 9.415 1.671 2.121 2.121 2.458 5.503 1.671 9.415-.796 3.957-2.793 8.746-5.761 14.036C87.034 30.5 83.31 36.028 78.834 41.79a5 5 0 01-6.23 7.6 222.962 222.962 0 01-11.187 12.028C48.875 73.96 36.065 83.912 25.472 89.855c-5.29 2.968-10.079 4.965-14.036 5.761-3.912.787-7.294.45-9.415-1.671C-.1 91.823-.438 88.442.35 84.53c.772-3.837 2.672-8.455 5.492-13.554zM78 45a3 3 0 11-6 0 3 3 0 016 0z" fill-rule="evenodd" fill="#73f"/></svg>