<svg xmlns="http://www.w3.org/2000/svg" viewBox="0 0 48 48">
  <path fill="#7633ff" d="M24 43.2c-1.78 0-7.54-4.55-11.6-8.62C8 30.18 2.8 23.7 2.8 17.83a12.88 12.88 0 0 1 12.7-13c2.91 0 5.77 1.48 8.5 4.39 2.73-2.91 5.59-4.39 8.5-4.39a12.88 12.88 0 0 1 12.7 13c0 5.87-5.22 12.35-9.6 16.75-4.06 4.07-9.82 8.62-11.6 8.62Zm-8.5-36A10.48 10.48 0 0 0 5.2 17.83c0 9.34 16.39 22.09 18.8 23 2.41-.86 18.8-13.61 18.8-23A10.48 10.48 0 0 0 32.5 7.2c-2.5 0-5.05 1.54-7.58 4.57a1.23 1.23 0 0 1-1.84 0C20.55 8.74 18 7.2 15.5 7.2Z"></path>
</svg>
