<svg xmlns="http://www.w3.org/2000/svg" viewBox="0 0 80 80">
  <path fill="#7633ff" d="M14.213 16.334A34.875 34.875 0 0 0 5 40a34.874 34.874 0 0 0 9.213 23.665l13.462-13.462A15.935 15.935 0 0 1 24 40c0-3.878 1.38-7.434 3.675-10.203L14.213 16.334Zm16.603 32.867a.734.734 0 0 0-.009-.009l-.008-.009A12.96 12.96 0 0 1 27 40a12.96 12.96 0 0 1 3.806-9.19A12.96 12.96 0 0 1 40 27c7.18 0 13 5.82 13 13s-5.82 13-13 13a12.96 12.96 0 0 1-9.184-3.799Zm-1.02 3.124L16.334 65.787A34.874 34.874 0 0 0 40 75a34.874 34.874 0 0 0 23.666-9.213L50.204 52.325A15.935 15.935 0 0 1 40 56c-3.878 0-7.434-1.38-10.204-3.675ZM13.14 66.879C20.015 73.75 29.511 78 40 78c10.487 0 19.982-4.248 26.858-11.118l.012-.012.013-.013C73.752 59.982 78 50.487 78 40c0-10.49-4.25-19.986-11.122-26.862l-.008-.008-.007-.008C59.986 6.25 50.49 2 40 2 19.013 2 2 19.013 2 40c0 10.489 4.25 19.985 11.12 26.86a.408.408 0 0 0 .01.01l.009.01ZM56 40c0-3.878-1.38-7.434-3.675-10.203l13.462-13.462A34.874 34.874 0 0 1 75 40a34.874 34.874 0 0 1-9.213 23.665L52.325 50.203A15.935 15.935 0 0 0 56 40Zm-5.797-12.325A15.935 15.935 0 0 0 40 24c-3.878 0-7.434 1.38-10.203 3.675L16.334 14.213A34.875 34.875 0 0 1 40 5a34.874 34.874 0 0 1 23.665 9.213L50.203 27.675Z" fill-rule="evenodd"></path>
</svg>
